<svg xmlns="http://www.w3.org/2000/svg" viewBox="0 0 640 560" role="img" aria-label="Bhagat Singh inspired portrait illustration">
  <defs>
    <linearGradient id="bg" x1="0" x2="1" y1="0" y2="1">
      <stop offset="0%" stop-color="#f5d99a"/>
      <stop offset="100%" stop-color="#d76a62"/>
    </linearGradient>
  </defs>
  <rect width="640" height="560" rx="36" fill="url(#bg)"/>
  <circle cx="315" cy="205" r="118" fill="#f1d4b3"/>
  <path d="M226 195c18-84 116-110 192-52 42 32 58 96 44 150-10 40-30 63-66 80-38 18-79 16-122-2-39-16-66-52-66-102 0-29 7-51 18-74z" fill="#1d2d44"/>
  <path d="M248 190c10-102 191-104 210 2-51-11-118-18-164-7-17 5-29 15-46 31z" fill="#2b3b57"/>
  <circle cx="278" cy="206" r="10" fill="#1d2d44"/>
  <circle cx="367" cy="206" r="10" fill="#1d2d44"/>
  <path d="M286 271c25 23 49 34 77 34 34 0 59-16 82-42" fill="none" stroke="#1d2d44" stroke-width="12" stroke-linecap="round"/>
  <path d="M194 470c38-80 90-120 134-128 29-5 56 0 88 10 54 17 90 57 128 119" fill="#af1e2d"/>
  <rect x="172" y="300" width="45" height="200" rx="20" fill="#1d2d44"/>
  <rect x="425" y="300" width="45" height="200" rx="20" fill="#1d2d44"/>
  <rect x="209" y="328" width="28" height="145" rx="14" fill="#d69d2b"/>
  <rect x="404" y="328" width="28" height="145" rx="14" fill="#d69d2b"/>
  <path d="M145 118l72-42 38 69-62 49-48-76z" fill="#af1e2d" opacity="0.9"/>
  <path d="M500 125l-66-36-34 72 56 52 44-88z" fill="#af1e2d" opacity="0.8"/>
  <path d="M470 103l25-60 34 18-22 48-37-6z" fill="#d69d2b"/>
</svg>
